<?xml version="1.0" encoding="utf-8"?>
<!-- Generator: Adobe Illustrator 23.0.1, SVG Export Plug-In . SVG Version: 6.00 Build 0)  -->
<svg version="1.1" id="Layer_1" xmlns="http://www.w3.org/2000/svg" xmlns:xlink="http://www.w3.org/1999/xlink" x="0px" y="0px"
	 viewBox="0 0 138 28" enable-background="new 0 0 138 28" xml:space="preserve">
<path fill="#414042" d="M26.7,16.4h4.6v1.8h-6.9V8.5h2.2L26.7,16.4L26.7,16.4z"/>
<path fill="#414042" d="M34.5,18.1h-2.1v-7.5h2.1V18.1z"/>
<path fill="#414042" d="M34.5,9.5h-2.1V7.7h2.1V9.5z"/>
<path fill="#414042" d="M36.7,18.1v-5.9h-1.2v-1.6h1.2v-0.4c0-0.9,0.1-1.4,0.4-1.8C37.4,8.2,37.8,8,38.6,8h1.7v1.6h-1
	c-0.3,0-0.4,0-0.4,0.1c-0.1,0.1-0.1,0.2-0.1,0.6v0.3h1.6v1.6h-1.6V18h-2.2V18.1z"/>
<path fill="#414042" d="M43.1,14.9c0,1.2,0.1,1.4,0.2,1.5c0.1,0.1,0.3,0.1,0.7,0.1h1.3c0.4,0,0.6-0.1,0.7-0.1
	c0.1-0.1,0.1-0.1,0.1-0.7h1.9c0,1.1-0.1,1.6-0.5,1.9c-0.2,0.2-0.6,0.4-1.4,0.4h-2.8c-0.8,0-1.2-0.1-1.5-0.5
	c-0.5-0.5-0.7-1.1-0.7-3.3c0-2.2,0.2-2.8,0.7-3.3c0.3-0.4,0.7-0.4,1.5-0.4h2.6c0.8,0,1.2,0.1,1.5,0.4c0.5,0.5,0.6,1.1,0.6,3.3v0.4
	c0,0.2-0.1,0.3-0.3,0.3h-4.6V14.9z M43.1,13.7h2.8c0-1-0.1-1.3-0.1-1.4c-0.1-0.1-0.2-0.1-0.7-0.1h-1.2c-0.4,0-0.6,0-0.7,0.1
	C43.1,12.4,43.1,12.6,43.1,13.7z"/>
<path fill="#414042" d="M50.3,17.2h5v0.9h-6.1V8.5h1.1V17.2z"/>
<path fill="#414042" d="M56.6,17.7c-0.5-0.5-0.7-1.1-0.7-3.3s0.1-2.8,0.7-3.3c0.3-0.3,0.7-0.4,1.5-0.4h2c0.7,0,1.2,0.1,1.5,0.4
	c0.5,0.5,0.7,1.1,0.7,3.3s-0.1,2.8-0.7,3.3c-0.3,0.3-0.7,0.4-1.5,0.4h-2C57.3,18.1,56.9,18,56.6,17.7z M57.3,17
	c0.1,0.1,0.4,0.2,0.9,0.2H60c0.5,0,0.7-0.1,0.9-0.2c0.2-0.2,0.4-0.6,0.4-2.6s-0.1-2.3-0.4-2.6c-0.1-0.1-0.4-0.2-0.9-0.2h-1.7
	c-0.5,0-0.7,0.1-0.9,0.2c-0.2,0.2-0.4,0.6-0.4,2.6S57.1,16.8,57.3,17z"/>
<path fill="#414042" d="M69.3,15.6c-0.1,1.3-0.2,1.8-0.6,2.1c-0.3,0.3-0.6,0.4-1.3,0.4h-2c-0.8,0-1.2-0.1-1.5-0.4
	c-0.5-0.5-0.7-1.1-0.7-3.3s0.1-2.8,0.7-3.3c0.3-0.3,0.7-0.4,1.5-0.4h2c0.7,0,1.1,0.1,1.4,0.4c0.4,0.4,0.5,0.8,0.5,2.1h-1
	c-0.1-0.9-0.1-1.1-0.3-1.3c-0.1-0.1-0.3-0.2-0.8-0.2h-1.7c-0.5,0-0.7,0.1-0.9,0.2c-0.2,0.2-0.4,0.6-0.4,2.6s0.1,2.3,0.4,2.6
	c0.1,0.1,0.4,0.2,0.9,0.2h1.7c0.4,0,0.7-0.1,0.8-0.2s0.2-0.4,0.3-1.4L69.3,15.6L69.3,15.6z"/>
<path fill="#414042" d="M70.4,18.1V8.3h1V14h0.8l2.8-3.2h1.2L73,14.4l3.3,3.8h-1.3l-2.8-3.3h-0.7v3.3C71.5,18.1,70.4,18.1,70.4,18.1
	z"/>
<g>
	<g>
		<path fill="#D0202E" d="M21.5,8.5c-0.8-0.8-2.5-0.9-4.8-0.9s-4,0.1-4.8,0.9c-0.8,0.8-0.9,2-0.9,4.7s0.1,3.9,0.9,4.7
			c0.8,0.8,2.5,0.9,4.8,0.9s4-0.1,4.8-0.9c0.8-0.8,0.9-1.9,0.9-4.7C22.4,10.5,22.3,9.3,21.5,8.5"/>
	</g>
</g>
<g>
	<path fill="#FFFFFF" d="M18.1,10.4h-0.6c0-0.4-0.4-0.8-0.8-0.8c-0.4,0-0.8,0.4-0.8,0.8h-0.6C15.3,9.6,16,9,16.7,9
		C17.5,9,18.1,9.6,18.1,10.4z"/>
	<path fill="#FFFFFF" d="M14.8,10.9v3.5h0.7v2.9h1v-2.1h0.7v2.1h1v-2.9h0.7v-3.5C18.7,10.9,14.8,10.9,14.8,10.9z M16.9,12.7v0.8
		h-0.4v-0.8c-0.1-0.1-0.3-0.3-0.3-0.4c0-0.3,0.2-0.5,0.5-0.5c0.3,0,0.5,0.2,0.5,0.5C17.2,12.4,17.2,12.6,16.9,12.7z"/>
</g>
<path fill-rule="evenodd" clip-rule="evenodd" fill="#414042" d="M76.6,10.3v0.1h0.2V11h0.1v-0.6h0.2v-0.1H76.6z M77.8,10.3
	l-0.1,0.6l-0.1-0.6h-0.2V11h0.1v-0.5l0.1,0.6h0.1l0.1-0.6V11H78v-0.7L77.8,10.3L77.8,10.3z"/>
</svg>
