<?xml version="1.0" encoding="utf-8"?>
<!-- Generator: Adobe Illustrator 23.0.0, SVG Export Plug-In . SVG Version: 6.00 Build 0)  -->
<svg version="1.1" id="Layer_1" xmlns="http://www.w3.org/2000/svg" xmlns:xlink="http://www.w3.org/1999/xlink" x="0px" y="0px"
	 viewBox="0 0 138 28" style="enable-background:new 0 0 138 28;" xml:space="preserve">
<style type="text/css">
	.st0{clip-path:url(#SVGID_2_);}
	.st1{clip-path:url(#SVGID_4_);}
	.st2{clip-path:url(#SVGID_4_);fill:#A7A9AC;}
	.st3{clip-path:url(#SVGID_4_);fill:#FFC20E;}
</style>
<g id="Artwork_6_1_">
	<g>
		<defs>
			<rect id="SVGID_1_" x="9.6" y="4" width="50" height="19.3"/>
		</defs>
		<clipPath id="SVGID_2_">
			<use xlink:href="#SVGID_1_"  style="overflow:visible;"/>
		</clipPath>
		<g class="st0">
			<defs>
				<rect id="SVGID_3_" x="9.6" y="4" width="50" height="19.3"/>
			</defs>
			<clipPath id="SVGID_4_">
				<use xlink:href="#SVGID_3_"  style="overflow:visible;"/>
			</clipPath>
			<path class="st1" d="M50.5,10.2c-1.5,0-2.8,1.2-2.8,2.8c0,1.5,1.2,2.8,2.8,2.8c1.5,0,2.8-1.2,2.8-2.8
				C53.3,11.5,52.1,10.2,50.5,10.2 M50.5,14.4c-0.8,0-1.4-0.6-1.4-1.4c0-0.8,0.6-1.4,1.4-1.4c0.8,0,1.4,0.6,1.4,1.4
				C52,13.8,51.3,14.4,50.5,14.4"/>
			<path class="st1" d="M37.7,10.2c-1.5,0-2.8,1.2-2.8,2.8c0,1.5,1.2,2.8,2.8,2.8c1.5,0,2.8-1.2,2.8-2.8
				C40.5,11.5,39.2,10.2,37.7,10.2 M37.7,14.4c-0.8,0-1.4-0.6-1.4-1.4c0-0.8,0.6-1.4,1.4-1.4c0.8,0,1.4,0.6,1.4,1.4
				C39.1,13.8,38.5,14.4,37.7,14.4"/>
			<path class="st1" d="M47.6,14.5c-0.2,0.1-0.4,0.1-0.5,0.1c-0.5,0-0.6-0.2-0.6-0.6v-2.6h1.1v-1.1h-1.1V8.8h-1.3l-0.3,1.5H44v0
				h-0.1c-0.7,0-1.3,0.4-1.6,1.1l-0.4-1.1h-0.9v5.4h1.6v-2.3c0-1.2,0.7-1.9,1.5-1.9h0.9v2.7c0,1.3,0.6,1.7,1.7,1.7
				c0.5,0,1-0.1,1.2-0.2L47.6,14.5z"/>
			<polyline class="st1" points="55.2,12 55.2,15.7 53.7,15.7 53.7,10.3 54.6,10.3 54.9,11.2 			"/>
			<path class="st1" d="M54.9,11.2c0.5-0.5,1.1-0.9,1.8-0.9c1.3,0,1.8,1,1.8,2v3.5H57v-3.5c0-0.5-0.4-0.7-0.8-0.7
				c-0.4,0-0.7,0.3-1,0.5"/>
			<polygon class="st1" points="28.8,8.4 30.6,8.4 33,13 33,8.4 34.4,8.4 34.4,15.7 32.8,15.7 30.3,10.7 30.3,15.7 28.8,15.7 			"/>
			<polygon class="st1" points="59,10.3 59,10.5 58.8,10.5 58.8,11 58.7,11 58.7,10.5 58.6,10.5 58.6,10.3 			"/>
			<polygon class="st1" points="59.1,11 59.1,10.3 59.2,10.3 59.3,10.7 59.4,10.3 59.6,10.3 59.6,11 59.5,11 59.5,10.5 59.5,10.5 
				59.4,11 59.3,11 59.2,10.5 59.2,10.5 59.2,11 			"/>
			<path class="st2" d="M29.3,21.1l-0.1,0.3h-0.3v-4h0.5v1.5c0.2-0.2,0.4-0.4,0.8-0.4c0.8,0,1.1,0.8,1.1,1.4c0,0.9-0.5,1.5-1.2,1.5
				C29.7,21.5,29.4,21.4,29.3,21.1 M30.7,20c0-0.5-0.1-1-0.7-1c-0.2,0-0.5,0.1-0.7,0.3v1.5c0.2,0.2,0.4,0.3,0.6,0.3
				C30.4,21.1,30.7,20.7,30.7,20"/>
			<path class="st2" d="M31.6,18.6h0.5c0,0,0.7,2.4,0.7,2.4l0.7-2.4H34l-1,3.1c-0.2,0.5-0.5,0.8-1,0.8c-0.1,0-0.2,0-0.3-0.1l0.1-0.4
				c0.1,0,0.1,0,0.2,0c0.3,0,0.5-0.1,0.6-0.5L31.6,18.6z"/>
			<path class="st2" d="M35.5,21.1l0.2-0.4c0.2,0.2,0.6,0.4,1.1,0.4c0.5,0,0.8-0.3,0.8-0.7c0-0.5-0.4-0.6-0.9-0.8
				c-0.6-0.2-1.1-0.5-1.1-1.2c0-0.7,0.5-1,1.2-1c0.5,0,0.8,0.1,1.1,0.3l-0.2,0.4c-0.2-0.1-0.5-0.2-0.9-0.2c-0.4,0-0.7,0.2-0.7,0.6
				c0,0.4,0.3,0.6,0.9,0.8c0.6,0.2,1.2,0.4,1.2,1.2c0,0.7-0.5,1.1-1.3,1.1C36.2,21.5,35.7,21.3,35.5,21.1"/>
			<path class="st2" d="M38.5,18.6H39c0,0,0.7,2.4,0.7,2.4l0.7-2.4h0.5l-1,3.1c-0.2,0.5-0.5,0.8-1,0.8c-0.1,0-0.2,0-0.3-0.1l0.1-0.4
				c0.1,0,0.1,0,0.2,0c0.3,0,0.5-0.1,0.6-0.5L38.5,18.6z"/>
			<path class="st2" d="M44.4,18.6c0.6,0,0.7,0.5,0.7,1v2h-0.5v-2c0-0.3,0-0.5-0.4-0.5c-0.2,0-0.5,0.1-0.7,0.4v2.1H43v-2
				c0-0.3,0-0.5-0.4-0.5c-0.2,0-0.5,0.2-0.7,0.4v2.1h-0.5v-2.9h0.3l0.1,0.5c0.3-0.3,0.6-0.5,1-0.5c0.4,0,0.5,0.2,0.7,0.5
				C43.7,18.8,44.1,18.6,44.4,18.6"/>
			<path class="st2" d="M47.5,19.6c0-0.4-0.1-0.6-0.5-0.6c-0.3,0-0.5,0.1-0.8,0.3l-0.2-0.3c0.3-0.2,0.6-0.3,1-0.3c0.7,0,1,0.4,1,1
				v1.9h-0.3l-0.1-0.3c-0.2,0.2-0.5,0.4-0.9,0.4c-0.5,0-0.9-0.3-0.9-0.8c0-0.3,0.1-0.5,0.4-0.7c0.3-0.2,0.7-0.3,1.3-0.4V19.6z
				 M47.5,20c-0.6,0.1-0.9,0.2-1.1,0.4c-0.1,0.1-0.1,0.2-0.1,0.3c0,0.3,0.1,0.4,0.4,0.4c0.3,0,0.5-0.1,0.7-0.3V20z"/>
			<path class="st2" d="M48.8,18.6h0.3l0.1,0.5c0.3-0.3,0.6-0.5,1-0.5c0.6,0,0.8,0.5,0.8,1v2h-0.5v-2c0-0.3-0.1-0.5-0.4-0.5
				c-0.3,0-0.5,0.2-0.8,0.4v2.1h-0.5V18.6z"/>
			<path class="st2" d="M51.6,19v-0.4H52l0.1-0.8h0.4v0.8h0.6V19h-0.6v1.8c0,0.3,0.1,0.4,0.3,0.4c0.1,0,0.2,0,0.3-0.1l0.1,0.3
				c-0.1,0.1-0.3,0.1-0.5,0.1c-0.5,0-0.8-0.3-0.8-0.8V19H51.6z"/>
			<path class="st2" d="M54.9,21.1c0.3,0,0.5-0.1,0.8-0.3l0.2,0.3c-0.3,0.2-0.5,0.4-1,0.4c-0.7,0-1.2-0.6-1.2-1.5
				c0-0.9,0.5-1.5,1.2-1.5c0.7,0,1.1,0.6,1.1,1.5v0.1h-1.8C54.2,20.8,54.4,21.1,54.9,21.1 M55.4,19.9c0-0.6-0.2-0.9-0.6-0.9
				c-0.4,0-0.6,0.3-0.6,0.9H55.4z"/>
			<path class="st2" d="M56.4,20.1c0-0.7,0.3-1.5,1.2-1.5c0.4,0,0.6,0.1,0.9,0.3l-0.2,0.3c-0.2-0.1-0.4-0.2-0.7-0.2
				c-0.6,0-0.7,0.6-0.7,1.1c0,0.5,0.1,1.1,0.7,1.1c0.3,0,0.5-0.1,0.7-0.3l0.2,0.3c-0.2,0.2-0.5,0.4-0.9,0.4
				C56.7,21.5,56.4,20.8,56.4,20.1"/>
			<path class="st3" d="M17.9,23.4c-4.6,0-8.4-3.8-8.4-8.4c0-4.6,3.8-8.4,8.4-8.4s8.4,3.8,8.4,8.4C26.3,19.6,22.5,23.4,17.9,23.4
				 M17.9,9.3c-1.5,0-3,0.6-4,1.7c-1.1,1.1-1.7,2.5-1.7,4c0,1.5,0.6,3,1.7,4c1.1,1.1,2.5,1.7,4,1.7c1.5,0,3-0.6,4-1.7
				c1.1-1.1,1.7-2.5,1.7-4c0-1.5-0.6-3-1.7-4C20.9,9.9,19.5,9.3,17.9,9.3"/>
			<rect x="27" y="5.3" class="st3" width="0.7" height="0.7"/>
			<rect x="27" y="4" class="st3" width="0.7" height="0.7"/>
			<rect x="25.2" y="6" class="st3" width="0.6" height="0.6"/>
			<rect x="24" y="7.2" class="st1" width="0.6" height="0.6"/>
			<rect x="25.8" y="6.6" class="st1" width="0.7" height="0.6"/>
			<rect x="23.4" y="6.7" class="st1" width="0.6" height="0.6"/>
			<rect x="25.2" y="7.2" class="st1" width="0.6" height="0.6"/>
			<rect x="26.4" y="4.7" class="st1" width="0.6" height="0.6"/>
			<rect x="25.2" y="5.3" class="st1" width="1.2" height="0.6"/>
			<rect x="24.6" y="6" class="st1" width="0.6" height="1.2"/>
			<path class="st1" d="M24.6,7.9v0.6H24V7.9h-1v0.4h-0.5v0.5H23v0.6h-0.6V8.8h-0.6v1h-0.6v0.6h-0.4V11h-0.4c-0.5,0.7-1.8,3.1-2.1,4
				c-1.4-1.9-2.4-2.7-3.3-2.9c-0.5-0.1-1,0.4-0.2,1.1c1.7,1.9,2.3,3.5,2.8,4.7c0.3,0.7,1.5,0.8,1.8,0.1c0.5-1.4,1.3-3,2.2-4.3V13
				h0.5v-0.6h0.5v-0.7H23V11h-0.6v-0.6H23V11h0.6l0-0.6h0.5V9.7h0.5V9.1h0.5V7.9H24.6z"/>
		</g>
	</g>
</g>
</svg>
